<mxfile host="app.diagrams.net" modified="2022-11-08T00:32:04.114Z" agent="5.0 (Windows NT 10.0; Win64; x64) AppleWebKit/537.36 (KHTML, like Gecko) Chrome/107.0.0.0 Safari/537.36" etag="XdJa8yLSRfsSb5xkXV4H" version="20.5.3" type="github">
  <diagram id="C5RBs43oDa-KdzZeNtuy" name="Page-1">
    <mxGraphModel dx="981" dy="526" grid="1" gridSize="10" guides="1" tooltips="1" connect="1" arrows="1" fold="1" page="1" pageScale="1" pageWidth="300000" pageHeight="300000" background="#F4F1DE" math="0" shadow="0">
      <root>
        <object label="" id="WIyWlLk6GJQsqaUBKTNV-0">
          <mxCell />
        </object>
        <mxCell id="WIyWlLk6GJQsqaUBKTNV-1" parent="WIyWlLk6GJQsqaUBKTNV-0" />
        <mxCell id="Gtpd2-pzpZS1eoP8T10H-84" value="" style="group;fontColor=#393C56;rounded=1;" vertex="1" connectable="0" parent="WIyWlLk6GJQsqaUBKTNV-1">
          <mxGeometry x="120" y="60" width="310" height="430" as="geometry" />
        </mxCell>
        <mxCell id="Gtpd2-pzpZS1eoP8T10H-27" value="" style="edgeStyle=orthogonalEdgeStyle;rounded=1;orthogonalLoop=1;jettySize=auto;html=1;labelBackgroundColor=#F4F1DE;strokeColor=#E07A5F;fontColor=#393C56;" edge="1" parent="Gtpd2-pzpZS1eoP8T10H-84" source="WIyWlLk6GJQsqaUBKTNV-3">
          <mxGeometry relative="1" as="geometry">
            <mxPoint x="225" y="90" as="targetPoint" />
          </mxGeometry>
        </mxCell>
        <mxCell id="WIyWlLk6GJQsqaUBKTNV-3" value="몇명이 참여할지 &lt;br&gt;선택한다" style="rounded=1;whiteSpace=wrap;html=1;fontSize=12;glass=0;strokeWidth=1;shadow=0;direction=east;fillColor=#F2CC8F;strokeColor=#E07A5F;fontColor=#393C56;" parent="Gtpd2-pzpZS1eoP8T10H-84" vertex="1">
          <mxGeometry x="140" y="20" width="170" height="40" as="geometry" />
        </mxCell>
        <mxCell id="Gtpd2-pzpZS1eoP8T10H-8" style="edgeStyle=orthogonalEdgeStyle;rounded=1;orthogonalLoop=1;jettySize=auto;html=1;exitX=1;exitY=0.5;exitDx=0;exitDy=0;entryX=0;entryY=0.5;entryDx=0;entryDy=0;labelBackgroundColor=#F4F1DE;strokeColor=#E07A5F;fontColor=#393C56;" edge="1" parent="Gtpd2-pzpZS1eoP8T10H-84" source="Gtpd2-pzpZS1eoP8T10H-4" target="WIyWlLk6GJQsqaUBKTNV-3">
          <mxGeometry relative="1" as="geometry" />
        </mxCell>
        <mxCell id="Gtpd2-pzpZS1eoP8T10H-4" value="시작" style="ellipse;shape=doubleEllipse;whiteSpace=wrap;html=1;aspect=fixed;fillColor=#F2CC8F;strokeColor=#E07A5F;fontColor=#393C56;rounded=1;" vertex="1" parent="Gtpd2-pzpZS1eoP8T10H-84">
          <mxGeometry width="80" height="80" as="geometry" />
        </mxCell>
        <mxCell id="Gtpd2-pzpZS1eoP8T10H-29" value="" style="edgeStyle=orthogonalEdgeStyle;rounded=1;orthogonalLoop=1;jettySize=auto;html=1;labelBackgroundColor=#F4F1DE;strokeColor=#E07A5F;fontColor=#393C56;" edge="1" parent="Gtpd2-pzpZS1eoP8T10H-84" source="Gtpd2-pzpZS1eoP8T10H-26">
          <mxGeometry relative="1" as="geometry">
            <mxPoint x="225" y="180" as="targetPoint" />
          </mxGeometry>
        </mxCell>
        <mxCell id="Gtpd2-pzpZS1eoP8T10H-26" value="참가자 순서를 정한다" style="ellipse;whiteSpace=wrap;html=1;rounded=1;glass=0;strokeWidth=1;shadow=0;fillColor=#F2CC8F;strokeColor=#E07A5F;fontColor=#393C56;" vertex="1" parent="Gtpd2-pzpZS1eoP8T10H-84">
          <mxGeometry x="165" y="90" width="120" height="60" as="geometry" />
        </mxCell>
        <mxCell id="Gtpd2-pzpZS1eoP8T10H-39" value="" style="edgeStyle=orthogonalEdgeStyle;rounded=1;jumpSize=1;orthogonalLoop=1;jettySize=auto;html=1;labelBackgroundColor=#F4F1DE;strokeColor=#E07A5F;fontColor=#393C56;" edge="1" parent="Gtpd2-pzpZS1eoP8T10H-84" source="Gtpd2-pzpZS1eoP8T10H-28">
          <mxGeometry relative="1" as="geometry">
            <mxPoint x="225" y="270" as="targetPoint" />
          </mxGeometry>
        </mxCell>
        <mxCell id="Gtpd2-pzpZS1eoP8T10H-28" value="제시어를 저장할&amp;nbsp;&lt;br&gt;변수를 만든다" style="ellipse;whiteSpace=wrap;html=1;rounded=1;glass=0;strokeWidth=1;shadow=0;fillColor=#F2CC8F;strokeColor=#E07A5F;fontColor=#393C56;" vertex="1" parent="Gtpd2-pzpZS1eoP8T10H-84">
          <mxGeometry x="165" y="180" width="120" height="60" as="geometry" />
        </mxCell>
        <mxCell id="Gtpd2-pzpZS1eoP8T10H-67" value="" style="edgeStyle=orthogonalEdgeStyle;shape=connector;rounded=1;jumpSize=1;orthogonalLoop=1;jettySize=auto;html=1;labelBackgroundColor=#F4F1DE;strokeColor=#E07A5F;fontFamily=Helvetica;fontSize=11;fontColor=#393C56;endArrow=classic;spacing=1;" edge="1" parent="Gtpd2-pzpZS1eoP8T10H-84" source="Gtpd2-pzpZS1eoP8T10H-36">
          <mxGeometry relative="1" as="geometry">
            <mxPoint x="225" y="370" as="targetPoint" />
          </mxGeometry>
        </mxCell>
        <mxCell id="Gtpd2-pzpZS1eoP8T10H-36" value="입력한 단어를 저장할&lt;br&gt;변수를 만든다" style="ellipse;whiteSpace=wrap;html=1;rounded=1;glass=0;strokeWidth=1;shadow=0;fillColor=#F2CC8F;strokeColor=#E07A5F;fontColor=#393C56;" vertex="1" parent="Gtpd2-pzpZS1eoP8T10H-84">
          <mxGeometry x="165" y="270" width="120" height="60" as="geometry" />
        </mxCell>
        <mxCell id="Gtpd2-pzpZS1eoP8T10H-81" value="대기" style="rounded=1;whiteSpace=wrap;html=1;fontFamily=Helvetica;fontSize=11;fontColor=#393C56;fillColor=#F2CC8F;strokeColor=#E07A5F;" vertex="1" parent="Gtpd2-pzpZS1eoP8T10H-84">
          <mxGeometry x="165" y="370" width="120" height="60" as="geometry" />
        </mxCell>
        <mxCell id="Gtpd2-pzpZS1eoP8T10H-87" value="" style="edgeStyle=none;shape=connector;rounded=1;jumpSize=1;orthogonalLoop=1;jettySize=auto;html=1;labelBackgroundColor=#F4F1DE;strokeColor=#E07A5F;fontFamily=Helvetica;fontSize=11;fontColor=#393C56;endArrow=classic;" edge="1" parent="WIyWlLk6GJQsqaUBKTNV-1" source="Gtpd2-pzpZS1eoP8T10H-85">
          <mxGeometry relative="1" as="geometry">
            <mxPoint x="90" y="420.0000000000001" as="targetPoint" />
          </mxGeometry>
        </mxCell>
        <mxCell id="Gtpd2-pzpZS1eoP8T10H-91" value="" style="edgeStyle=none;shape=connector;rounded=1;jumpSize=1;orthogonalLoop=1;jettySize=auto;html=1;labelBackgroundColor=#F4F1DE;strokeColor=#E07A5F;fontFamily=Helvetica;fontSize=11;fontColor=#393C56;endArrow=classic;" edge="1" parent="WIyWlLk6GJQsqaUBKTNV-1" source="Gtpd2-pzpZS1eoP8T10H-85">
          <mxGeometry relative="1" as="geometry">
            <mxPoint x="90" y="420.0000000000001" as="targetPoint" />
          </mxGeometry>
        </mxCell>
        <mxCell id="Gtpd2-pzpZS1eoP8T10H-93" value="" style="edgeStyle=none;shape=connector;rounded=1;jumpSize=1;orthogonalLoop=1;jettySize=auto;html=1;labelBackgroundColor=#F4F1DE;strokeColor=#E07A5F;fontFamily=Helvetica;fontSize=11;fontColor=#393C56;endArrow=classic;" edge="1" parent="WIyWlLk6GJQsqaUBKTNV-1" source="Gtpd2-pzpZS1eoP8T10H-85" target="Gtpd2-pzpZS1eoP8T10H-92">
          <mxGeometry relative="1" as="geometry" />
        </mxCell>
        <mxCell id="Gtpd2-pzpZS1eoP8T10H-85" value="단어 입력&lt;br&gt;(input 이벤트)" style="rounded=1;whiteSpace=wrap;html=1;fontFamily=Helvetica;fontSize=11;fontColor=#393C56;fillColor=#F2CC8F;strokeColor=#E07A5F;" vertex="1" parent="WIyWlLk6GJQsqaUBKTNV-1">
          <mxGeometry x="30" y="280" width="120" height="60" as="geometry" />
        </mxCell>
        <mxCell id="Gtpd2-pzpZS1eoP8T10H-92" value="입력한 단어를 저장한다." style="ellipse;whiteSpace=wrap;html=1;fontSize=11;rounded=1;fillColor=#F2CC8F;strokeColor=#E07A5F;fontColor=#393C56;" vertex="1" parent="WIyWlLk6GJQsqaUBKTNV-1">
          <mxGeometry x="30" y="420" width="120" height="60" as="geometry" />
        </mxCell>
        <mxCell id="Gtpd2-pzpZS1eoP8T10H-98" value="" style="group;fontColor=#393C56;rounded=1;" vertex="1" connectable="0" parent="WIyWlLk6GJQsqaUBKTNV-1">
          <mxGeometry x="600" y="70" width="160" height="210" as="geometry" />
        </mxCell>
        <mxCell id="Gtpd2-pzpZS1eoP8T10H-94" value="입력 버튼 클릭" style="rounded=1;whiteSpace=wrap;html=1;fontFamily=Helvetica;fontSize=11;fontColor=#393C56;fillColor=#F2CC8F;strokeColor=#E07A5F;" vertex="1" parent="Gtpd2-pzpZS1eoP8T10H-98">
          <mxGeometry width="160" height="60" as="geometry" />
        </mxCell>
        <mxCell id="Gtpd2-pzpZS1eoP8T10H-97" value="" style="group;fontColor=#393C56;rounded=1;" vertex="1" connectable="0" parent="Gtpd2-pzpZS1eoP8T10H-98">
          <mxGeometry x="20" y="130" width="120" height="80" as="geometry" />
        </mxCell>
        <mxCell id="Gtpd2-pzpZS1eoP8T10H-95" value="제시어가 비어있는가" style="rhombus;whiteSpace=wrap;html=1;fontSize=11;rounded=1;fillColor=#F2CC8F;strokeColor=#E07A5F;fontColor=#393C56;" vertex="1" parent="Gtpd2-pzpZS1eoP8T10H-97">
          <mxGeometry width="120" height="80" as="geometry" />
        </mxCell>
        <mxCell id="Gtpd2-pzpZS1eoP8T10H-96" value="" style="edgeStyle=none;shape=connector;rounded=1;jumpSize=1;orthogonalLoop=1;jettySize=auto;html=1;labelBackgroundColor=#F4F1DE;strokeColor=#E07A5F;fontFamily=Helvetica;fontSize=11;fontColor=#393C56;endArrow=classic;" edge="1" parent="Gtpd2-pzpZS1eoP8T10H-98" source="Gtpd2-pzpZS1eoP8T10H-94" target="Gtpd2-pzpZS1eoP8T10H-95">
          <mxGeometry relative="1" as="geometry" />
        </mxCell>
        <mxCell id="Gtpd2-pzpZS1eoP8T10H-125" value="입력한 단어가&amp;nbsp;&lt;br&gt;제시어가 된다." style="ellipse;whiteSpace=wrap;html=1;fontSize=11;rounded=1;fillColor=#F2CC8F;strokeColor=#E07A5F;fontColor=#393C56;" vertex="1" parent="WIyWlLk6GJQsqaUBKTNV-1">
          <mxGeometry x="540" y="310" width="120" height="60" as="geometry" />
        </mxCell>
        <mxCell id="Gtpd2-pzpZS1eoP8T10H-126" value="" style="edgeStyle=none;shape=connector;jumpSize=1;orthogonalLoop=1;jettySize=auto;html=1;labelBackgroundColor=#F4F1DE;strokeColor=#E07A5F;fontFamily=Helvetica;fontSize=11;fontColor=#393C56;endArrow=classic;rounded=1;" edge="1" parent="WIyWlLk6GJQsqaUBKTNV-1" source="Gtpd2-pzpZS1eoP8T10H-95" target="Gtpd2-pzpZS1eoP8T10H-125">
          <mxGeometry relative="1" as="geometry" />
        </mxCell>
        <mxCell id="Gtpd2-pzpZS1eoP8T10H-127" value="입력한 단어가 &lt;br&gt;올바른가?" style="ellipse;whiteSpace=wrap;html=1;fontSize=11;rounded=1;fillColor=#F2CC8F;strokeColor=#E07A5F;fontColor=#393C56;" vertex="1" parent="WIyWlLk6GJQsqaUBKTNV-1">
          <mxGeometry x="700" y="310" width="120" height="60" as="geometry" />
        </mxCell>
        <mxCell id="Gtpd2-pzpZS1eoP8T10H-128" value="" style="edgeStyle=none;shape=connector;rounded=1;jumpSize=1;orthogonalLoop=1;jettySize=auto;html=1;labelBackgroundColor=#F4F1DE;strokeColor=#E07A5F;fontFamily=Helvetica;fontSize=11;fontColor=#393C56;endArrow=classic;" edge="1" parent="WIyWlLk6GJQsqaUBKTNV-1" source="Gtpd2-pzpZS1eoP8T10H-95" target="Gtpd2-pzpZS1eoP8T10H-127">
          <mxGeometry relative="1" as="geometry" />
        </mxCell>
      </root>
    </mxGraphModel>
  </diagram>
</mxfile>
